<svg id="Layer_1" data-name="Layer 1" xmlns="http://www.w3.org/2000/svg" xmlns:xlink="http://www.w3.org/1999/xlink" viewBox="0 0 56.52 65.51"><defs><style>.cls-1{fill:none;}.cls-2{fill:#fff;}.cls-3{clip-path:url(#clip-path);}.cls-4{fill:#fffdfd;}.cls-5{opacity:0.5;}.cls-6{fill:#f9f9f9;}.cls-7{opacity:0.49;}.cls-8{opacity:0.54;}.cls-9{clip-path:url(#clip-path-2);}.cls-10{clip-path:url(#clip-path-3);}.cls-11{font-size:20.36px;fill:#34539d;}.cls-11,.cls-12{stroke:#fff;stroke-miterlimit:10;font-family:AmericanCaptain, American Captain;}.cls-12{font-size:20.3px;fill:#db2821;}</style><clipPath id="clip-path" transform="translate(-1.67 2.23)"><rect class="cls-1" x="6.33" width="47.24" height="60" rx="7.26"/></clipPath><clipPath id="clip-path-2" transform="translate(-1.67 2.23)"><path d="M22.83,26.54l1.66-1.46h9.3l1.86,1.46s8.14-.21,10.17-1.46S47.44,7.34,30.07,7.76,13.73,22.57,13.94,23.82,21.38,26.54,22.83,26.54Z"/></clipPath><clipPath id="clip-path-3" transform="translate(-1.67 2.23)"><path class="cls-2" d="M23,26.14l1.6-1.4h9l1.8,1.4s7.86-.2,9.82-1.4S46.81,7.76,30,8.16,14.26,22.34,14.45,23.54,21.65,26.14,23,26.14Z"/></clipPath></defs><title>navbarlogo</title><g class="cls-3"><rect width="56.52" height="65.51"/><path class="cls-4" d="M43,29.73V27.17H39.83c-4.95-1.64-14.44-1.64-19.4,0H17.25V30h0c.08,5.17,5.81,9.35,12.87,9.35s12.6-4,12.87-9.08h0v0c0-.11,0-.22,0-.33S43,29.77,43,29.73Z" transform="translate(-1.67 2.23)"/><path class="cls-5" d="M14.45,24.75l30.76-.21s-4.48,10.39-15.48,10a17.42,17.42,0,0,1-8.93-2.76A18.49,18.49,0,0,1,14.45,24.75Z" transform="translate(-1.67 2.23)"/><path class="cls-6" d="M14.45,24.72l30.76-.18a17,17,0,0,1-15.48,8.58,19.5,19.5,0,0,1-8.93-2.39A16.77,16.77,0,0,1,14.45,24.72Z" transform="translate(-1.67 2.23)"/><polygon class="cls-5" points="13.18 23.34 13.18 31.56 9.5 31.56 8.63 30.08 8.63 24.82 9.72 23.34 13.18 23.34"/><path class="cls-5" d="M13.56,20.9l-.87-1.26a1.08,1.08,0,0,0-.87,0,1.66,1.66,0,0,0-.65.84l.22.42Z" transform="translate(-1.67 2.23)"/><path class="cls-5" d="M13.12,19.64a1,1,0,0,0-1.3-.21c-.86.42-.86,1.05-.86,1.05l-.22.21-3.68-11s.22-1.69.65-1.9a1.72,1.72,0,0,1,1.73.42C9.66,8.69,13.12,19.64,13.12,19.64Z" transform="translate(-1.67 2.23)"/><path class="cls-5" d="M46.79,19.37a1,1,0,0,1,1.33-.2c.89.41.89,1,.89,1l.22.2L53,9.61S52.78,8,52.34,7.74a1.8,1.8,0,0,0-1.78.42C50.34,8.57,46.79,19.37,46.79,19.37Z" transform="translate(-1.67 2.23)"/><path class="cls-5" d="M46.35,20.62l.88-1.25a1.19,1.19,0,0,1,.89,0,1.69,1.69,0,0,1,.67.84l-.23.41Z" transform="translate(-1.67 2.23)"/><polygon class="cls-5" points="43.34 23.05 43.34 31.16 47.12 31.16 48 29.7 48 24.51 46.89 23.05 43.34 23.05"/><polygon class="cls-2" points="43.14 23.37 43.14 31.16 46.54 31.16 47.34 29.76 47.34 24.77 46.34 23.37 43.14 23.37"/><path class="cls-2" d="M46,20.94l.8-1.2a1,1,0,0,1,.8,0,1.56,1.56,0,0,1,.6.8l-.2.4Z" transform="translate(-1.67 2.23)"/><path class="cls-2" d="M46.41,19.74a.9.9,0,0,1,1.2-.2,1.24,1.24,0,0,1,.8,1l.2.2L52,10.36s-.2-1.6-.59-1.8a1.56,1.56,0,0,0-1.6.4C49.61,9.36,46.41,19.74,46.41,19.74Z" transform="translate(-1.67 2.23)"/><polygon class="cls-2" points="13.58 23.37 13.58 31.16 10.09 31.16 9.27 29.76 9.27 24.77 10.3 23.37 13.58 23.37"/><path class="cls-2" d="M14,20.94l-.82-1.2a1,1,0,0,0-.82,0,1.58,1.58,0,0,0-.62.8l.21.4Z" transform="translate(-1.67 2.23)"/><path class="cls-2" d="M13.61,19.74a.94.94,0,0,0-1.23-.2c-.82.4-.82,1-.82,1l-.21.2L7.86,10.36s.21-1.6.62-1.8a1.62,1.62,0,0,1,1.64.4C10.33,9.36,13.61,19.74,13.61,19.74Z" transform="translate(-1.67 2.23)"/><path class="cls-7" d="M15.25,25.94s1.14,4.31,2.27,5.44S20.7,34.33,20.7,35s-1.59.91-1.59.91a16.44,16.44,0,0,1-3.18-3.86C15.25,30.48,15.25,25.94,15.25,25.94Z" transform="translate(-1.67 2.23)"/><path class="cls-4" d="M15.65,27.13s1,3.8,2,4.8,2.8,2.59,2.8,3.19-1.4.8-1.4.8a14.18,14.18,0,0,1-2.8-3.39C15.65,31.13,15.65,27.13,15.65,27.13Z" transform="translate(-1.67 2.23)"/><path class="cls-7" d="M44.81,25.94s-1,4.31-2.08,5.44S39.82,34.33,39.82,35s1.46.91,1.46.91a15.86,15.86,0,0,0,2.91-3.86C44.81,30.48,44.81,25.94,44.81,25.94Z" transform="translate(-1.67 2.23)"/><path class="cls-4" d="M44.45,27.13s-.92,3.8-1.83,4.8-2.57,2.59-2.57,3.19,1.29.8,1.29.8a14,14,0,0,0,2.56-3.39C44.45,31.13,44.45,27.13,44.45,27.13Z" transform="translate(-1.67 2.23)"/><g class="cls-8"><path d="M22.83,26.54l1.66-1.46h9.3l1.86,1.46s8.14-.21,10.17-1.46S47.44,7.34,30.07,7.76,13.73,22.57,13.94,23.82,21.38,26.54,22.83,26.54Z" transform="translate(-1.67 2.23)"/><g class="cls-9"><path d="M46.61,20.59c0,7.32-7.36,13.25-16.44,13.25-7.1,0-13.14-3.63-15.44-8.71a10.79,10.79,0,0,1-1-4.54c0-7.32,7.36-13.25,16.44-13.25S46.61,13.27,46.61,20.59Z" transform="translate(-1.67 2.23)"/><path d="M22.83,26.12l1.66-1.46h9.3l1.86,1.46s8.14-.21,10.17-1.46S47.44,6.93,30.07,7.34,13.73,22.15,13.94,23.41,21.38,26.12,22.83,26.12Z" transform="translate(-1.67 2.23)"/></g></g><path class="cls-2" d="M23,26.14l1.6-1.4h9l1.8,1.4s7.86-.2,9.82-1.4S46.81,7.76,30,8.16,14.26,22.34,14.45,23.54,21.65,26.14,23,26.14Z" transform="translate(-1.67 2.23)"/><g class="cls-10"><path class="cls-2" d="M46,20.44c0,7-7.11,12.69-15.88,12.69-6.85,0-12.69-3.47-14.92-8.34a10.38,10.38,0,0,1-1-4.35c0-7,7.1-12.68,15.87-12.68S46,13.44,46,20.44Z" transform="translate(-1.67 2.23)"/><path class="cls-2" d="M23,25.74l1.6-1.4h9l1.8,1.4s7.86-.2,9.82-1.4S46.81,7.36,30,7.76,14.26,21.94,14.45,23.14,21.65,25.74,23,25.74Z" transform="translate(-1.67 2.23)"/></g><text class="cls-11" transform="translate(12.18 58.45) scale(1.76 1)">R</text><text class="cls-12" transform="translate(28.76 58.4) scale(1.89 1)">S</text></g></svg>