<svg id="Layer_1" data-name="Layer 1" xmlns="http://www.w3.org/2000/svg" xmlns:xlink="http://www.w3.org/1999/xlink" viewBox="0 0 684.68 527.5"><defs><style>.cls-1,.cls-12{fill:none;}.cls-10,.cls-12,.cls-2,.cls-5,.cls-6,.cls-8,.cls-9{stroke:#000;stroke-miterlimit:10;}.cls-3,.cls-9{fill:#fff;}.cls-4{clip-path:url(#clip-path);}.cls-14,.cls-5{fill:#e6e6e6;}.cls-6{stroke-width:2px;}.cls-7{fill:#f9f9f9;}.cls-8{fill:#b3b3b3;}.cls-10{fill:#999;}.cls-11{clip-path:url(#clip-path-2);}.cls-13{clip-path:url(#clip-path-3);}</style><clipPath id="clip-path" transform="translate(-79.76 -32.54)"><rect class="cls-1" x="69.47" y="-87.73" width="702.96" height="987.73" rx="7.26"/></clipPath><clipPath id="clip-path-2" transform="translate(-79.76 -32.54)"><path class="cls-2" d="M315,349.1l24.61-24H478l27.69,24s121.08-3.43,151.31-24S681.1,33.17,422.65,40s-243.08,243.82-240,264.43S293.42,349.1,315,349.1Z"/></clipPath><clipPath id="clip-path-3" transform="translate(-79.76 -32.54)"><path class="cls-3" d="M318.11,342.53l23.78-23H475.63l26.75,23s117-3.29,146.16-23S671.79,40,422.14,46.6,187.34,280.05,190.31,299.78,297.31,342.53,318.11,342.53Z"/></clipPath></defs><title>fav</title><g class="cls-4"><path class="cls-5" d="M615.18,401.69l.14-42.16H568c-73.7-27-215-27-288.67,0H231.92v46.15H232c1.28,85.15,86.56,153.86,191.64,153.86,103.24,0,187.37-66.32,191.5-149.38h0v-.91c.08-1.83.17-3.65.17-5.49C615.32,403.06,615.23,402.38,615.18,401.69Z" transform="translate(-79.76 -32.54)"/><path class="cls-6" d="M190.31,319.71,648,316.22s-66.69,171-230.37,164.07c-55.21-2.36-99-21.39-132.88-45.58C218.27,387.17,190.31,319.71,190.31,319.71Z" transform="translate(-79.76 -32.54)"/><path class="cls-7" d="M190.31,319.23l457.71-3S581.33,463.44,417.65,457.43c-55.21-2-99-18.41-132.88-39.23C218.27,377.29,190.31,319.23,190.31,319.23Z" transform="translate(-79.76 -32.54)"/><polygon class="cls-2" points="116.5 227.34 116.5 362.6 61.73 362.6 48.84 338.32 48.84 251.62 64.95 227.34 116.5 227.34"/><path class="cls-2" d="M176.93,256.41,164,235.6s-6.45-3.47-12.89,0-9.66,13.87-9.66,13.87l3.22,6.94Z" transform="translate(-79.76 -32.54)"/><path class="cls-2" d="M170.48,235.6s-6.44-10.4-19.33-3.47-12.89,17.34-12.89,17.34L135,252.94,80.27,72.6s3.22-27.74,9.66-31.21,22.56,0,25.78,6.94S170.48,235.6,170.48,235.6Z" transform="translate(-79.76 -32.54)"/><path class="cls-2" d="M671.46,231.23s6.61-10.26,19.82-3.42,13.21,17.1,13.21,17.1l3.3,3.42L763.93,70.47S760.62,43.11,754,39.69s-23.12,0-26.42,6.84S671.46,231.23,671.46,231.23Z" transform="translate(-79.76 -32.54)"/><path class="cls-2" d="M664.86,251.75l13.21-20.52s6.6-3.42,13.21,0,9.9,13.68,9.9,13.68l-3.3,6.84Z" transform="translate(-79.76 -32.54)"/><polygon class="cls-2" points="565.28 222.63 565.28 356.02 621.42 356.02 634.63 332.08 634.63 246.57 618.12 222.63 565.28 222.63"/><polygon class="cls-8" points="562.31 227.79 562.31 356.02 612.84 356.02 624.73 333 624.73 250.8 609.87 227.79 562.31 227.79"/><path class="cls-9" d="M659.9,257l11.89-19.73s6-3.29,11.89,0,8.92,13.15,8.92,13.15l-3,6.58Z" transform="translate(-79.76 -32.54)"/><path class="cls-10" d="M665.85,237.31s5.94-9.86,17.83-3.29,11.89,16.44,11.89,16.44l3,3.29,50.53-171s-3-26.3-8.92-29.59-20.8,0-23.78,6.58S665.85,237.31,665.85,237.31Z" transform="translate(-79.76 -32.54)"/><polygon class="cls-8" points="122.44 227.79 122.44 356.02 70.51 356.02 58.3 333 58.3 250.8 73.57 227.79 122.44 227.79"/><path class="cls-9" d="M183.87,257l-12.21-19.73s-6.11-3.29-12.22,0-9.17,13.15-9.17,13.15l3.06,6.58Z" transform="translate(-79.76 -32.54)"/><path class="cls-10" d="M177.77,237.31s-6.11-9.86-18.33-3.29-12.22,16.44-12.22,16.44l-3.06,3.29-51.92-171s3.05-26.3,9.16-29.59,21.38,0,24.44,6.58S177.77,237.31,177.77,237.31Z" transform="translate(-79.76 -32.54)"/><path class="cls-2" d="M202.2,339.24s16.89,71,33.78,89.67,47.28,48.57,47.28,59.78-23.64,14.95-23.64,14.95-37.15-37.36-47.29-63.52S202.2,339.24,202.2,339.24Z" transform="translate(-79.76 -32.54)"/><path class="cls-8" d="M208.15,359s14.86,62.47,29.72,78.91,41.61,42.74,41.61,52.61-20.81,13.15-20.81,13.15-32.69-32.88-41.61-55.9S208.15,359,208.15,359Z" transform="translate(-79.76 -32.54)"/><path class="cls-2" d="M642.07,339.24s-15.48,71-31,89.67-43.34,48.57-43.34,59.78,21.67,14.95,21.67,14.95,34.06-37.36,43.34-63.52S642.07,339.24,642.07,339.24Z" transform="translate(-79.76 -32.54)"/><path class="cls-8" d="M636.62,359S623,421.44,609.38,437.88s-38.14,42.74-38.14,52.61,19.07,13.15,19.07,13.15,30-32.88,38.14-55.9S636.62,359,636.62,359Z" transform="translate(-79.76 -32.54)"/><path d="M315,349.1l24.61-24H478l27.69,24s121.08-3.43,151.31-24S681.1,33.17,422.65,40s-243.08,243.82-240,264.43S293.42,349.1,315,349.1Z" transform="translate(-79.76 -32.54)"/><g class="cls-11"><path class="cls-2" d="M668.8,251.23c0,120.43-109.52,218.07-244.62,218.07-105.62,0-195.61-59.69-229.85-143.29a196.7,196.7,0,0,1-14.76-74.78c0-120.43,109.52-218.06,244.61-218.06S668.8,130.8,668.8,251.23Z" transform="translate(-79.76 -32.54)"/><path class="cls-2" d="M315,342.23l24.61-24H478l27.69,24S626.8,338.8,657,318.2s24.07-291.9-234.38-285S179.57,277,182.65,297.59,293.42,342.23,315,342.23Z" transform="translate(-79.76 -32.54)"/></g><path class="cls-12" d="M315,349.1l24.61-24H478l27.69,24s121.08-3.43,151.31-24S681.1,33.17,422.65,40s-243.08,243.82-240,264.43S293.42,349.1,315,349.1Z" transform="translate(-79.76 -32.54)"/><path class="cls-3" d="M318.11,342.53l23.78-23H475.63l26.75,23s117-3.29,146.16-23S671.79,40,422.14,46.6,187.34,280.05,190.31,299.78,297.31,342.53,318.11,342.53Z" transform="translate(-79.76 -32.54)"/><g class="cls-13"><path class="cls-3" d="M659.9,248.82c0,115.31-105.78,208.79-236.28,208.79-102,0-189-57.15-222-137.2a186.93,186.93,0,0,1-14.26-71.59C187.34,133.51,293.13,40,423.62,40S659.9,133.51,659.9,248.82Z" transform="translate(-79.76 -32.54)"/><path class="cls-14" d="M318.11,336l23.78-23H475.63l26.75,23s117-3.29,146.16-23S671.79,33.45,422.14,40,187.34,273.48,190.31,293.21,297.31,336,318.11,336Z" transform="translate(-79.76 -32.54)"/></g></g></svg>